<?xml version="1.0" encoding="UTF-8"?>
<!DOCTYPE svg PUBLIC "-//W3C//DTD SVG 1.1//EN" "http://www.w3.org/Graphics/SVG/1.1/DTD/svg11.dtd">
<!-- Creator: CorelDRAW 2021 (64-Bit) -->
<svg xmlns="http://www.w3.org/2000/svg" xml:space="preserve" width="209.903mm" height="296.686mm" version="1.1" style="shape-rendering:geometricPrecision; text-rendering:geometricPrecision; image-rendering:optimizeQuality; fill-rule:evenodd; clip-rule:evenodd"
viewBox="0 0 20990.28 29668.6"
 xmlns:xlink="http://www.w3.org/1999/xlink"
 xmlns:xodm="http://www.corel.com/coreldraw/odm/2003">
 <defs>
  <style type="text/css">
   <![CDATA[
    .fil1 {fill:#EE3738}
    .fil4 {fill:#892649}
    .fil0 {fill:#287B49}
    .fil2 {fill:#274A84}
    .fil3 {fill:#031959}
    .fil5 {fill:#892649;fill-rule:nonzero}
   ]]>
  </style>
 </defs>
 <g id="Слой_x0020_1">
  <metadata id="CorelCorpID_0Corel-Layer"/>
  <g id="_1599229953632">
   <path class="fil0" d="M7757.86 13656.29c-58.49,467.12 -365.45,737.55 -854.02,772.42 -2.81,-642.45 403.36,-803.55 854.02,-772.42z"/>
   <path class="fil1" d="M6790.62 17349.57c-926.59,-11.98 -1685.22,-862.82 -1594.81,-1824.73 66.72,-757.4 885.72,-1164.14 1447.5,-822.02 -985.94,-10.69 -1276.36,912.29 -857.7,1654.75 302.34,501.42 751.19,628.29 1093.47,598.24 557.38,-49.53 952.22,-488.5 1044.86,-963.92 105.5,-521.85 -124.7,-987.75 -771.7,-957.57 -444.44,18.27 -794.22,475.51 -651.03,889.55 48.45,120.67 144.27,201.25 266.74,215.19 182.04,28.08 375.63,-128.11 296.13,-307.75 -76.47,-147.25 -286.24,-91.29 -296.13,43.18 -92.36,-144.06 -3.11,-340.97 179.87,-398.17 242.04,-67.73 455.21,28.01 541.35,268.04 132.36,427.12 -205.51,748.67 -604.75,774.58 -431.52,22.61 -767.37,-280.67 -802.89,-753.13 -39.86,-659.42 607.92,-1110.21 1162.27,-1173.77 833.01,-86.06 1263.45,650.97 1105.24,1428.81 -160.45,733.64 -781.31,1317.96 -1558.42,1328.72z"/>
   <path class="fil2" d="M7655.54 13445.59c37.69,0 76.98,1.29 116.69,3.96l218.51 15.03 -27.23 217.42c-38.41,307.69 -169.98,550.45 -377.72,714.8 239.23,39.42 452.6,145.42 620.2,311.43 53.29,-22.88 106.08,-46.06 161.53,-68.37l0 -2324.63c-511.67,93.73 -1109.56,386.45 -1479.06,728.22l0 726.06c19.5,-24.98 40.08,-48.74 62.39,-70.98 166.88,-167.89 404.01,-252.94 704.69,-252.94z"/>
   <path class="fil2" d="M8478.94 15126.61c155.83,-50.03 324.73,-96.04 517.45,-140.3l0 -2296.11c-147.95,4.77 -288.26,18.35 -421.77,37.98l0 2052.77 -65.78 25.84c-57.41,22.39 -112.51,45 -166.23,67.45 54.45,78.28 99.87,162.61 136.33,252.37z"/>
   <path class="fil2" d="M6200.17 14373.18c170.34,0 336.27,39.93 484.3,115.69l0 -1445.42c-369.42,-341.54 -967.38,-634.49 -1478.98,-728.29l0 2324.84c57.62,23.17 112.86,47.23 168.17,71.19 232.3,-217.85 537.02,-338.01 826.51,-338.01z"/>
   <path class="fil2" d="M5228.52 14873.67c-53.15,-22.39 -107.74,-44.63 -164.35,-66.88l-65.92 -25.76 0 -2052.78c-133.45,-19.7 -273.75,-33.28 -421.71,-38.05l0 2296.11c188.98,43.4 354.7,88.39 507.92,137.42 38.56,-91.13 87.66,-174.25 144.06,-250.06z"/>
   <path class="fil2" d="M5020.77 15320.72c-168.24,-53.66 -353.39,-102.47 -570.23,-150.49l-81.31 -17.99 0 -2061.21c-140.73,-12.55 -283.85,-18.69 -428.42,-16.23l0 2393.29 1053.82 0c6,-50.77 14.88,-99.65 26.14,-147.37z"/>
   <path class="fil2" d="M9203.78 13091.03l0 2061.28 -81.31 17.92c-220.89,48.82 -408.85,98.49 -579.55,153.51 11.48,47.01 20.36,95.31 27.51,144.28l1061.76 0 0 -2393.22c-144.56,-2.46 -287.75,3.6 -428.41,16.23z"/>
   <path class="fil1" d="M11163.1 15043.36l-15.6 -115.11 144.13 0 0 447.13c0,187.67 -125.21,314.04 -321.91,314.04 -286.09,0 -292.81,-266.09 -292.81,-285.17l0 -360.89 -15.59 -115.11 160.88 0 0 467.27c0,111.64 71.56,184.28 167.74,184.28 97.19,0 173.16,-80.37 173.16,-192.15l0 -344.29z"/>
   <polygon class="fil1" points="12104.27,15578.49 12112.14,15674.89 12019.43,15674.89 11642.64,15251.24 11599.1,15180.7 11599.1,15578.49 11611.37,15674.89 11470.56,15674.89 11470.56,15043.36 11454.9,14928.25 11566.68,14928.25 11933.21,15359.71 11975.74,15429.03 11975.74,15043.36 11960.07,14928.25 12104.27,14928.25 "/>
   <polygon class="fil1" points="12456.44,15578.49 12468.78,15674.89 12311.15,15674.89 12311.15,15043.36 12295.55,14928.25 12456.44,14928.25 "/>
   <polygon class="fil1" points="12966.23,15689.42 12864.56,15667.09 12641.94,15066.83 12569.37,14928.25 12748.23,14928.25 12911.43,15396.45 12928.18,15484.85 12951.57,15396.45 13124.8,14928.25 13264.53,14928.25 "/>
   <polygon class="fil1" points="13373.2,15043.36 13357.46,14928.25 13785.44,14928.25 13785.44,15038.73 13518.34,15038.73 13518.34,15236.8 13754.25,15236.8 13726.23,15347.43 13518.34,15347.43 13518.34,15564.2 13800.03,15564.2 13772.09,15674.89 13373.2,15674.89 "/>
   <path class="fil1" d="M14331.06 15674.89l-185.65 -263.99 -56.9 0 0 167.59 12.27 96.4 -157.63 0 0 -631.53 -15.67 -115.11 231.43 0c134.09,0 263.78,73.72 263.78,232.45 0,82.74 -57.12,175.46 -140.88,218.07l231.36 296.12 -182.11 0zm-192.37 -369.93l0 0c70.48,0 133.01,-64.91 133.01,-144.26 0,-84.92 -62.53,-129.7 -133.01,-129.7l-50.18 0 0 273.96 50.18 0z"/>
   <path class="fil1" d="M14571.3 15488.17c0,0 91.7,92.92 209.04,92.92 61.52,0 105.14,-42.53 105.14,-92.92 0,-127.31 -317.36,-134.02 -317.36,-353.25 0,-120.59 87.01,-220.17 226.74,-220.17 96.25,0 168.89,31.42 208.03,55.89l-27.87 111.7c0,0 -73.87,-61.36 -183.41,-61.36 -41.45,0 -90.7,33.5 -90.7,84.99 0,129.67 320.9,128.45 320.9,357.58 0,127.44 -90.48,225.87 -233.6,225.87 -145.35,0 -227.96,-76.05 -227.96,-76.05l11.05 -125.2z"/>
   <polygon class="fil1" points="15313.61,15578.49 15325.88,15674.89 15168.25,15674.89 15168.25,15043.36 15152.51,14928.25 15313.61,14928.25 "/>
   <polygon class="fil1" points="15426.54,14928.25 16047.97,14928.25 16047.97,15041.04 15806.51,15041.04 15806.51,15578.49 15818.78,15674.89 15661.22,15674.89 15661.22,15041.04 15426.54,15041.04 "/>
   <polygon class="fil1" points="16489.39,15578.49 16501.74,15674.89 16344.17,15674.89 16344.17,15351.84 16172.97,15023.36 16103.79,14928.25 16281.43,14928.25 16413.42,15183.08 16427.94,15226.56 16442.38,15183.08 16573.22,14928.25 16718.43,14928.25 16489.39,15340.56 "/>
   <path class="fil3" d="M10808.55 14214.68l48.82 -11.92 116.9 319.18 32.13 71.19 -83.11 0 -32.71 -88.96 -126.65 0 -33.94 88.96 -68.67 0 147.23 -378.45zm-26.21 230.42l0 0 91.63 0 -39.57 -110.91 -5.2 -22.6 -5.63 23.03 -41.23 110.48z"/>
   <polygon class="fil3" points="11062.22,14269.28 11054.06,14210.13 11136.6,14210.13 11136.6,14535.14 11282.89,14535.14 11268.45,14593.13 11062.22,14593.13 "/>
   <polygon class="fil3" points="11417.64,14392.96 11398.64,14355.7 11398.64,14543.96 11405.07,14593.13 11332.72,14593.13 11332.72,14269.28 11324.7,14210.13 11383.77,14210.13 11543.71,14437.82 11689.86,14210.13 11739.69,14210.13 11739.69,14543.96 11746.19,14593.13 11665.31,14593.13 11665.31,14356.21 11648.63,14392.96 11537.43,14557.46 "/>
   <path class="fil3" d="M11936.67 14214.68l48.67 -11.92 117.05 319.18 31.99 71.19 -83.11 0 -32.57 -88.96 -126.72 0 -33.87 88.96 -68.67 0 147.23 -378.45zm-26.28 230.42l0 0 91.63 0 -39.64 -110.91 -5.13 -22.6 -5.7 23.03 -41.16 110.48z"/>
   <polygon class="fil3" points="13023.49,14392.96 13004.58,14355.7 13004.58,14543.96 13010.86,14593.13 12938.72,14593.13 12938.72,14269.28 12930.63,14210.13 12989.63,14210.13 13149.72,14437.82 13295.87,14210.13 13345.69,14210.13 13345.69,14543.96 13351.9,14593.13 13271.1,14593.13 13271.1,14356.21 13254.64,14392.96 13143.22,14557.46 "/>
   <path class="fil3" d="M13542.46 14214.68l48.81 -11.92 116.98 319.18 31.99 71.19 -83.04 0 -32.78 -88.96 -126.66 0 -33.79 88.96 -68.74 0 147.23 -378.45zm-26.28 230.42l0 0 91.7 0 -39.5 -110.91 -5.12 -22.6 -5.71 23.03 -41.37 110.48z"/>
   <polygon class="fil3" points="14115.87,14543.96 14120.06,14593.13 14072.33,14593.13 13879.1,14375.85 13856.72,14339.75 13856.72,14543.96 13863.14,14593.13 13790.86,14593.13 13790.86,14269.28 13782.92,14210.13 13840.25,14210.13 14028.21,14431.38 14050.02,14466.92 14050.02,14269.28 14041.93,14210.13 14115.87,14210.13 "/>
   <path class="fil3" d="M14307.66 14214.68l48.67 -11.92 116.98 319.18 31.99 71.19 -83.04 0 -32.71 -88.96 -126.66 0 -33.72 88.96 -68.96 0 147.45 -378.45zm-26.43 230.42l0 0 91.71 0 -39.5 -110.91 -5.2 -22.6 -5.63 23.03 -41.38 110.48z"/>
   <path class="fil3" d="M14816.16 14305.95c-31.99,-32.78 -66.43,-45.92 -100.3,-45.92 -64.77,0 -113.37,66.94 -113.37,143.92 0,89.46 59,140.44 118.57,140.44 30.47,0 58.99,-7.44 58.99,-7.44l0 -80.87 -10.25 -49.24 82.53 0 0.51 168.45c0,0 -66.87,25.35 -142.11,25.35 -94.52,0 -185.72,-64.19 -185.72,-191.06 0,-120.81 83.19,-206.23 190.27,-206.23 51.56,0 94.6,14.79 131.35,47.66l-30.47 54.94z"/>
   <polygon class="fil3" points="14937.25,14269.28 14929.24,14210.13 15148.9,14210.13 15148.9,14266.97 15011.84,14266.97 15011.84,14368.41 15132.87,14368.41 15118.5,14425.11 15011.84,14425.11 15011.84,14536.45 15156.33,14536.45 15141.97,14593.13 14937.25,14593.13 "/>
   <polygon class="fil3" points="15309.63,14392.96 15290.72,14355.7 15290.72,14543.96 15296.93,14593.13 15224.57,14593.13 15224.57,14269.28 15216.63,14210.13 15275.62,14210.13 15435.71,14437.82 15581.79,14210.13 15631.62,14210.13 15631.62,14543.96 15638.04,14593.13 15557.24,14593.13 15557.24,14356.21 15540.63,14392.96 15429.36,14557.46 "/>
   <polygon class="fil3" points="15742.53,14269.28 15734.59,14210.13 15954.03,14210.13 15954.03,14266.97 15817.05,14266.97 15817.05,14368.41 15938,14368.41 15923.63,14425.11 15817.05,14425.11 15817.05,14536.45 15961.47,14536.45 15947.17,14593.13 15742.53,14593.13 "/>
   <polygon class="fil3" points="16354.93,14543.96 16358.98,14593.13 16311.32,14593.13 16118.23,14375.85 16095.92,14339.75 16095.92,14543.96 16102.13,14593.13 16029.78,14593.13 16029.78,14269.28 16021.83,14210.13 16079.17,14210.13 16267.2,14431.38 16289.01,14466.92 16289.01,14269.28 16280.92,14210.13 16354.93,14210.13 "/>
   <polygon class="fil3" points="16404.83,14210.13 16723.63,14210.13 16723.63,14268.05 16599.87,14268.05 16599.87,14543.96 16606.15,14593.13 16525.35,14593.13 16525.35,14268.05 16404.83,14268.05 "/>
   <polygon class="fil3" points="12110.55,14210.13 12430.08,14210.13 12430.08,14268.05 12305.95,14268.05 12305.95,14544.46 12312.31,14593.99 12231.29,14593.99 12231.29,14268.05 12110.55,14268.05 "/>
   <polygon class="fil3" points="12657.11,14544.46 12663.53,14593.99 12582.44,14593.99 12582.44,14427.91 12494.35,14258.94 12458.82,14210.13 12550.16,14210.13 12618.11,14341.05 12625.55,14363.57 12632.99,14341.05 12700.21,14210.13 12774.88,14210.13 12657.11,14422.06 "/>
   <path class="fil1" d="M11267.73 12331.03l200.6 -49.6 481.41 1314.43 132.22 292.59 -342.27 0 -134.53 -365.81 -521.42 0 -139.29 365.81 -283.13 0 606.41 -1557.42zm-108.53 948.69l0 0 377.65 0 -162.83 -457.81 -21.3 -92.06 -23.54 94.37 -169.98 455.5z"/>
   <polygon class="fil1" points="12310.79,12555.25 12277.65,12312.04 12617.53,12312.04 12617.53,13650.08 13219.33,13650.08 13160.26,13888.45 12310.79,13888.45 "/>
   <polygon class="fil1" points="13773.82,13064.83 13695.98,12911.53 13695.98,13685.46 13721.9,13888.45 13424.69,13888.45 13424.69,12555.25 13391.62,12312.04 13634.6,12312.04 14293,13249.04 14894.79,12312.04 15100.08,12312.04 15100.08,13685.46 15126.08,13888.45 14793.34,13888.45 14793.34,12913.83 14724.89,13064.83 14267.15,13742.15 "/>
   <path class="fil1" d="M15909.55 12331.03l200.52 -49.6 481.49 1314.43 132.07 292.59 -342.05 0 -134.53 -365.81 -521.56 0 -139.29 365.81 -283.14 0 606.49 -1557.42zm-108.6 948.69l0 0 377.65 0 -162.83 -457.81 -21.3 -92.06 -23.54 94.37 -169.98 455.5z"/>
   <path class="fil4" d="M10893.33 16947.15c-5.2,20.44 -10.84,41.31 -16.47,61.59 -8.45,29.98 -23.68,76.76 -32.78,106.8l101.16 0 -51.91 -168.39zm53.65 -94.88l0 0 146.8 398.73 -106.15 0 -19.78 -63.75 -146.88 0 -19.78 63.75 -106.08 0 147.96 -398.73 103.91 0z"/>
   <path class="fil4" d="M11200.65 16986.79c19.2,-16.46 40,-29.39 85.28,-33.94l0 76.76 -28.82 4.63c-41.88,7.21 -54.22,13.43 -54.22,50.75l0 166.01 -86.94 0 0 -295.33 84.7 0 0 31.12z"/>
   <path class="fil4" d="M11315.75 16955.67l85.93 0 0 295.33 -85.93 0 0 -295.33zm0 -103.9l0 0 85.93 0 0 67.21 -85.93 0 0 -67.21z"/>
   <polygon class="fil4" points="11454.61,16956.24 11707.05,16956.24 11707.05,17022.89 11550.14,17183.27 11707.05,17183.27 11707.05,17251 11437.78,17251 11437.78,17185.51 11596.93,17022.89 11454.61,17022.89 "/>
   <path class="fil4" d="M11825.11 17044.84c-10.76,17.05 -14.73,37.26 -14.73,57.7 0,46.8 22.6,88.1 71.2,88.1 46.79,0 69.97,-37.92 69.97,-84.19 0,-32.71 -7.87,-58.13 -24.26,-73.95 -18.13,-16.89 -38.35,-17.48 -50.84,-16.46 -24.84,1.81 -39.5,10.17 -51.34,28.8zm214.54 58.21l0 0c0,74.59 -42.82,156.41 -158.07,156.41 -83.04,0 -158.79,-47.3 -158.79,-156.41 0,-90.33 57.05,-162.11 170.13,-155.9 120.15,6.85 146.73,102.24 146.73,155.9z"/>
   <path class="fil4" d="M12156.62 16982.83c8.38,-9.11 14.01,-15.83 29.32,-23.19 13.58,-5.64 32.78,-10.76 53.72,-10.76 17.48,0 37.19,3.39 52.43,11.84 31.05,16.46 38.99,42.97 38.99,88.67l0 201.61 -86.36 0 0 -166.01c0,-26.56 -0.65,-36.17 -4.04,-44.04 -6.72,-15.75 -21.96,-22.6 -38.93,-22.6 -45.78,0 -45.78,36.67 -45.78,73.36l0 159.29 -86.94 0 0 -294.24 87.59 0 0 26.07z"/>
   <path class="fil4" d="M12484.09 17128.47c-14.73,5.63 -37.33,14.15 -37.33,36.67 0,14.17 12.49,29.98 32.78,29.98 10.76,0 20.87,-3.98 29.97,-9.61 28.81,-18.05 29.82,-45.12 30.54,-75.6l-55.96 18.56zm-110.19 -88.67l0 0c1.73,-20.3 4.62,-44.63 31.12,-65.58 27.15,-21.37 62.18,-25.84 96.62,-25.84 36.1,0 123.62,8.38 123.62,84.7l0 171.64c0,31.7 1.73,36.18 8.45,46.28l-85.28 0 0 -27.08c-21.95,16.32 -46.79,35.02 -90.41,35.02 -67.73,0 -96.54,-48.52 -96.54,-89.75 0,-47.43 37.91,-74.58 62.1,-84.69 23.83,-10.27 79.72,-20.37 116.47,-27.23l0 -15.82c-1.22,-13.57 -2.31,-36.03 -33.43,-36.03 -38.41,0 -43.4,23.69 -45.71,34.38l-87.01 0z"/>
   <path class="fil4" d="M12817.84 17131.36c10.11,11.26 18.63,20.35 38.42,30.98 26.57,14.15 53.65,19.19 76.83,19.19 39.42,0 73.44,-18.63 73.44,-46.28 0,-31.56 -40.23,-36.67 -69.47,-40.58 -22.1,-2.89 -44.12,-5.7 -65.57,-10.17 -24.33,-5.13 -107.37,-22.61 -107.37,-108.54 0,-102.69 91.63,-133.23 160.45,-133.23 91.99,0 141.74,44.56 176.26,75.6l-73.44 52.65c-12.49,-12.5 -23.83,-23.19 -39.57,-32.21 -14.08,-7.87 -39.5,-17.48 -64.91,-17.48 -39.57,0 -59.29,22.54 -59.29,41.67 0,30.54 33.8,35.09 50.77,37.41 42.31,5.05 99.43,15.67 121.96,23.6 45.71,16.98 68.88,52.5 68.88,97.79 0,28.8 -10.68,60.36 -31.55,84.69 -36.18,41.82 -93.8,53.66 -149.69,53.66 -112.36,0 -156.98,-51.93 -181.82,-80.73l75.67 -48.02z"/>
   <path class="fil4" d="M13148.13 16871.04l86.36 0 0 91.92 57.12 0 0 53.08 -57.63 0 0 132.79c-0.5,18.05 -0.5,33.29 22.61,33.29l31.05 -1.09 0 67.73c-18.71,2.83 -29.97,4.48 -45.79,4.48 -29.96,0 -62.6,-1.65 -81.23,-28.73 -11.84,-17.55 -12.49,-38.5 -12.49,-66.65l0 -142.25 -42.9 0 0 -53.22 42.9 0 0 -91.35z"/>
   <path class="fil4" d="M13428.3 17128.47c-14.73,5.63 -37.26,14.15 -37.26,36.67 0,14.17 12.42,29.98 32.64,29.98 10.76,0 20.94,-3.98 29.96,-9.61 28.82,-18.05 29.9,-45.12 30.55,-75.6l-55.89 18.56zm-110.26 -88.67l0 0c1.87,-20.3 4.62,-44.63 31.19,-65.58 27.08,-21.37 62.1,-25.84 96.54,-25.84 36.18,0 123.63,8.38 123.63,84.7l0 171.64c0,31.7 1.73,36.18 8.44,46.28l-85.28 0 0 -27.08c-21.87,16.32 -46.79,35.02 -90.33,35.02 -67.73,0 -96.54,-48.52 -96.54,-89.75 0,-47.43 37.91,-74.58 62.1,-84.69 23.83,-10.27 79.72,-20.37 116.4,-27.23l0 -15.82c-1.16,-13.57 -2.24,-36.03 -33.29,-36.03 -38.42,0 -43.54,23.69 -45.78,34.38l-87.08 0z"/>
   <path class="fil4" d="M13629.76 16871.04l86.44 0 0 91.92 57.11 0 0 53.08 -57.62 0 0 132.79c-0.58,18.05 -0.58,33.29 22.6,33.29l31.05 -1.09 0 67.73c-18.7,2.83 -29.96,4.48 -45.78,4.48 -29.89,0 -62.75,-1.65 -81.31,-28.73 -11.84,-17.55 -12.49,-38.5 -12.49,-66.65l0 -142.25 -42.89 0 0 -53.22 42.89 0 0 -91.35z"/>
   <path class="fil4" d="M13993.98 17066.87c-1.58,-12.35 -3.89,-28.67 -16.31,-41.67 -10.76,-10.83 -27.08,-16.46 -42.32,-16.46 -20.94,0 -35.53,10.11 -44.12,19.14 -11.77,13.07 -14.59,26.64 -17.47,38.99l120.22 0zm86.44 109.03l0 0c-10.11,15.24 -20.22,29.98 -35.46,44.13 -25.49,23.6 -63.9,41.8 -111.34,41.8 -87.45,0 -149.04,-55.95 -149.04,-152.58 0,-71.05 35.02,-162.61 151.28,-162.61 17.47,0 68.45,1.74 106.14,42.32 38.42,41.23 40.8,98.86 41.81,132.21l-210.56 0c-0.65,36.69 20.22,73.44 67.23,73.44 47.37,0 63.83,-31.06 74.45,-51.99l65.49 33.28z"/>
   <path class="fil4" d="M14548.19 16855.87l0 222.63c-0.58,38.42 -1.01,76.76 -23.03,112.93 -43.04,68.82 -131.71,72.21 -148.61,72.21 -29.9,0 -65.57,-7.37 -92.65,-21.37 -76.83,-39.65 -76.83,-109.62 -76.18,-163.77l0 -222.63 100.52 0 0 248.55c0,20.36 0.5,37.34 7.36,49.69 12.35,20.93 39.43,27.06 64.34,27.06 67.73,0 67.73,-46.28 68.38,-77.32l0 -247.98 99.87 0z"/>
   <path class="fil4" d="M14680.84 16986.35c8.52,-9.01 14.08,-15.73 29.46,-23.1 13.43,-5.7 32.64,-10.69 53.58,-10.69 17.47,0 37.33,3.32 52.57,11.84 31.05,16.33 38.99,42.89 38.99,88.67l0 201.55 -86.43 0 0 -166.01c0,-26.58 -0.58,-36.17 -3.98,-44.06 -6.78,-15.8 -22.09,-22.52 -38.92,-22.52 -45.78,0 -45.78,36.69 -45.78,73.36l0 159.23 -86.94 0 0 -294.19 87.45 0 0 25.92z"/>
   <path class="fil4" d="M14900.5 16959.28l85.93 0 0 295.34 -85.93 0 0 -295.34zm0 -103.91l0 0 85.93 0 0 67.23 -85.93 0 0 -67.23z"/>
   <path class="fil4" d="M15011.77 16959.79l91.56 0c36.04,131.06 42.25,158.14 51.85,214.75 11.99,-65.58 13.65,-72.93 31.12,-142.33l18.05 -72.42 89.18 0 -95.31 294.83 -91.06 0 -95.39 -294.83z"/>
   <path class="fil4" d="M15501.93 17070.55c-1.59,-12.48 -3.97,-28.74 -16.32,-41.8 -10.83,-10.77 -27.08,-16.33 -42.39,-16.33 -20.94,0 -35.53,10.18 -44.05,19.22 -11.84,12.91 -14.73,26.43 -17.47,38.91l120.23 0zm86.36 108.97l0 0c-10.11,15.24 -20.22,29.97 -35.45,44.04 -25.42,23.69 -63.84,41.89 -111.35,41.89 -87.45,0 -149.04,-55.96 -149.04,-152.51 0,-71.13 35.02,-162.75 151.35,-162.75 17.47,0 68.38,1.73 106.15,42.38 38.34,41.31 40.72,98.93 41.73,132.21l-210.56 0c-0.5,36.69 20.29,73.36 67.23,73.36 47.37,0 63.83,-30.96 74.45,-51.91l65.49 33.29z"/>
   <path class="fil4" d="M15711.41 16990.34c19.2,-16.32 40.14,-29.32 85.2,-33.8l0 76.68 -28.74 4.62c-41.73,7.23 -54.23,13.51 -54.23,50.77l0 166.01 -87.01 0 0 -295.34 84.78 0 0 31.06z"/>
   <path class="fil4" d="M15849.25 17155.26c23.69,23.17 53.01,40.72 85.79,40.72 20.87,0 52.49,-6.85 52.49,-28.88 0,-10.12 -6.21,-14.08 -11.19,-16.98 -13,-6.71 -33.43,-8.44 -50.26,-11.32 -12.99,-2.24 -26.57,-5 -39.57,-9.04 -18.05,-4.98 -36.17,-12.41 -49.1,-25.42 -13,-12.99 -22.09,-33.28 -22.09,-55.23 0,-48.67 41.8,-98.92 124.27,-98.92 69.46,0 111.2,30.04 131.63,44.03l-53.72 49.77c-27.58,-21.39 -53.65,-29.33 -73.94,-29.33 -33.94,0 -41.81,13.58 -41.81,21.95 0,16.98 18.7,20.37 46.79,25.42 59.36,10.76 128.32,26.51 128.32,96.55 0,69.54 -70.12,103.32 -139.58,103.32 -81.82,0 -124.13,-39.41 -142.83,-57.04l54.8 -49.6z"/>
   <path class="fil4" d="M16103.94 16959.28l85.71 0 0 295.34 -85.71 0 0 -295.34zm0 -103.91l0 0 85.71 0 0 67.23 -85.71 0 0 -67.23z"/>
   <path class="fil4" d="M16263.08 16874.58l86.44 0 0 92.06 57.04 0 0 53 -57.62 0 0 132.72c-0.5,18.21 -0.5,33.45 22.67,33.45l31.05 -1.16 0 67.66c-18.7,2.88 -30.03,4.55 -45.85,4.55 -29.82,0 -62.6,-1.67 -81.23,-28.74 -11.85,-17.56 -12.5,-38.43 -12.5,-66.65l0 -142.33 -42.89 0 0 -53.15 42.89 0 0 -91.41z"/>
   <path class="fil4" d="M16709.26 16959.79l-103.9 318.59c-6.72,19.19 -13,37.26 -27.59,53.58 -20.43,22.09 -40.15,23.24 -62.82,23.83l-62.61 0 0 -68.97 30.4 0c14.23,-0.5 36.18,-0.5 36.18,-21.37 0,-7.44 -2.24,-14.81 -3.97,-21.02l-88.1 -284.64 92.72 0 48.53 211.27 48.52 -211.27 92.64 0z"/>
   <path class="fil4" d="M12241.25 16205.42l0 121.24 62.17 0c30.26,0 51.56,-4.56 63.77,-13.72 12.2,-9.24 18.34,-24.84 18.34,-46.73 0,-21.88 -6.21,-37.55 -18.63,-46.71 -12.13,-9.47 -33.36,-14.08 -63.48,-14.08l-62.17 0zm-93.29 320.24l0 0 0 -392.52 165.5 0c58.92,0 101.74,10.4 128.46,30.98 26.72,20.57 40.08,53.51 40.08,98.56 0,45.42 -14.01,79.5 -42.32,102.24 -27.94,22.68 -69.89,34.02 -125.71,34.02l-72.72 0 0 126.72 -93.29 0z"/>
   <path class="fil4" d="M12593.56 16379.88c0,26.57 5.85,47.8 17.4,63.53 11.85,15.53 27.66,23.33 47.23,23.33 19.64,0 35.31,-7.86 47.15,-23.62 11.92,-15.74 17.76,-36.74 17.76,-63.24 0,-26.58 -5.84,-47.74 -17.76,-63.41 -11.55,-15.8 -27.29,-23.67 -47.15,-23.67 -19.43,0 -35.1,7.94 -46.94,23.82 -11.77,16.03 -17.69,37.04 -17.69,63.26zm64.63 155.32l0 0c-45.49,0 -82.1,-14.31 -109.83,-42.68 -27.73,-28.44 -41.45,-65.99 -41.45,-112.64 0,-46.43 13.86,-83.98 41.59,-112.65 27.88,-28.53 64.49,-42.89 109.69,-42.89 45.78,0 82.53,14.36 110.19,42.89 27.8,28.37 41.66,65.99 41.66,112.65 0,46.57 -13.93,84.12 -41.95,112.64 -27.8,28.37 -64.48,42.68 -109.9,42.68z"/>
   <polygon class="fil4" points="12905.58,16525.66 12822.97,16233.93 12909.98,16233.93 12953.6,16446.17 13002.63,16233.93 13080.9,16233.93 13121.63,16446.17 13176.94,16233.93 13257.45,16233.93 13163.65,16525.66 13077.65,16525.66 13036.2,16328.31 12990.93,16525.66 "/>
   <path class="fil4" d="M13352.33 16346.74l113.66 0c-2.16,-19.08 -8.09,-33.8 -17.98,-44.2 -9.75,-10.26 -22.74,-15.39 -38.92,-15.39 -16.1,0 -28.88,5.13 -38.78,15.39 -9.67,10.11 -15.66,24.83 -17.98,44.2zm-0.5 51.69l0 0c0.65,24.55 6.5,43.4 17.47,56.62 10.98,13 26.58,19.56 46.65,19.56 15.02,0 28.23,-4.41 39.79,-13.21 11.41,-8.95 21.08,-22.17 28.88,-39.65l62.97 31.13c-13.22,27.23 -31.92,47.87 -56.11,61.88 -24.12,13.93 -52.78,20.94 -86.29,20.94 -42.46,0 -76.25,-13.5 -101.16,-40.51 -24.92,-27.14 -37.34,-63.69 -37.34,-109.61 0,-48.24 13.15,-87.08 39.5,-116.41 26.58,-29.52 61.38,-44.26 104.27,-44.26 42.75,0 76.47,14.22 101.38,42.68 25.13,28.37 37.63,67.23 37.63,116.41 0,1.44 -0.15,3.75 -0.51,7.07 -0.14,3.17 -0.22,5.7 -0.22,7.36l-196.91 0z"/>
   <path class="fil4" d="M13598.28 16525.66l0 -291.73 81.6 0 0 29.75c13.5,-9.95 27.22,-17.54 41.52,-23.02 14.36,-5.56 28.81,-8.81 43.25,-9.47l0 78.2c-1.88,-0.29 -4.12,-0.36 -6.57,-0.36 -2.17,-0.13 -5.27,-0.29 -9.53,-0.29 -23.62,0 -40.37,4.27 -50.41,12.86 -9.96,8.3 -14.94,22.25 -14.94,41.73l0 162.33 -84.92 0z"/>
   <path class="fil4" d="M13868.41 16346.74l113.66 0c-2.17,-19.08 -8.23,-33.8 -17.98,-44.2 -9.89,-10.26 -22.82,-15.39 -39.06,-15.39 -15.89,0 -28.89,5.13 -38.64,15.39 -9.67,10.11 -15.67,24.83 -17.98,44.2zm-0.65 51.69l0 0c0.8,24.55 6.57,43.4 17.48,56.62 11.12,13 26.64,19.56 46.64,19.56 15.17,0 28.38,-4.41 39.79,-13.21 11.56,-8.95 21.16,-22.17 28.89,-39.65l63.11 31.13c-13.36,27.23 -31.99,47.87 -56.25,61.88 -24.05,13.93 -52.72,20.94 -86.15,20.94 -42.6,0 -76.32,-13.5 -101.24,-40.51 -24.84,-27.14 -37.4,-63.69 -37.4,-109.61 0,-48.24 13.29,-87.08 39.64,-116.41 26.57,-29.52 61.23,-44.26 104.2,-44.26 42.67,0 76.54,14.22 101.45,42.68 25.06,28.37 37.55,67.23 37.55,116.41 0,1.44 -0.07,3.75 -0.43,7.07 -0.29,3.17 -0.36,5.7 -0.36,7.36l-196.92 0z"/>
   <path class="fil4" d="M14244.48 16291.64c-18.7,0 -33.43,7.79 -43.98,23.47 -10.54,15.44 -15.81,37.19 -15.81,64.77 0,27.86 5.27,49.61 15.81,65.13 10.55,15.6 25.28,23.39 43.98,23.39 18.48,0 32.93,-7.79 43.32,-23.39 10.55,-15.52 15.82,-37.27 15.82,-65.13 0,-27.58 -5.27,-49.33 -15.82,-64.77 -10.39,-15.68 -24.84,-23.47 -43.32,-23.47zm143.98 -158.5l0 0 0 392.52 -77.48 0 0 -30.61c-10.54,11.48 -23.1,20.14 -37.62,25.93 -14.37,5.63 -30.98,8.52 -49.68,8.52 -37.98,0 -68.24,-13 -90.84,-38.86 -22.45,-26.07 -33.72,-61.23 -33.72,-105.56 0,-48.38 11.34,-86.65 34.01,-115.03 22.89,-28.68 53.44,-42.97 91.71,-42.97 16.03,0 30.54,2.39 43.68,7.14 13.07,4.63 24.77,11.85 35.1,21.39l0 -122.47 84.84 0z"/>
   <path class="fil4" d="M14877.25 16379.88c0,-27.87 -5.2,-49.39 -15.67,-64.77 -10.33,-15.68 -24.91,-23.47 -43.62,-23.47 -18.48,0 -33.21,7.87 -43.83,23.61 -10.54,15.66 -15.88,37.12 -15.88,64.63 0,27.86 5.34,49.61 15.88,65.13 10.54,15.6 25.13,23.39 43.83,23.39 18.71,0 33.29,-7.72 43.62,-23.11 10.47,-15.6 15.67,-37.39 15.67,-65.41zm-203.85 -246.74l0 0 84.85 0 0 122.47c10.32,-9.54 22.09,-16.76 35.16,-21.39 13.14,-4.75 27.66,-7.14 43.69,-7.14 37.47,0 67.73,14.01 90.84,42.09 23.25,28.1 34.95,64.93 34.95,110.71 0,46.65 -11.2,83.32 -33.29,109.97 -22.17,26.36 -52.71,39.65 -91.49,39.65 -18.49,0 -34.95,-2.89 -49.32,-8.52 -14.3,-5.79 -26.79,-14.45 -37.33,-25.93l0 30.61 -78.06 0 0 -392.52z"/>
   <path class="fil4" d="M14978.12 16233.93l91.13 0 49.1 211.08 49.61 -211.08 89.4 0 -97.13 301.27c-11.77,36.76 -25.27,61.38 -40.58,74.02 -15.16,12.91 -37.04,19.35 -65.78,19.35 -8.02,0 -15.89,-0.29 -23.76,-0.8 -7.8,-0.65 -15.52,-1.37 -23.1,-2.52l0.29 -68.96c5.63,0.64 10.75,0.93 15.52,1.15 4.69,0.36 8.59,0.5 11.7,0.5 14.51,0 24.84,-1.87 30.9,-5.63 6.14,-3.62 9.25,-9.67 9.25,-18.26 0,-3.48 -0.87,-8.03 -2.53,-13.8 -1.37,-5.85 -4.04,-14.58 -8.09,-26.35l-85.93 -259.97z"/>
   <polygon class="fil4" points="10695.11,16335.98 11843.89,16335.98 11843.89,16369.76 10695.11,16369.76 "/>
   <polygon class="fil4" points="15560.42,16335.98 16709.19,16335.98 16709.19,16369.76 15560.42,16369.76 "/>
   <path class="fil4" d="M16911.17 16710.06c81.75,0 148.02,66.27 148.02,148.02 0,81.76 -66.27,148.03 -148.02,148.03 -81.75,0 -148.02,-66.27 -148.02,-148.03 0,-81.75 66.27,-148.02 148.02,-148.02zm0 17.7c71.98,0 130.33,58.36 130.33,130.32 0,71.98 -58.35,130.33 -130.33,130.33 -71.98,0 -130.33,-58.35 -130.33,-130.33 0,-71.96 58.35,-130.32 130.33,-130.32z"/>
   <path class="fil5" d="M16860.63 16778.43l56.41 0c20.19,0 34.18,4.2 41.92,12.59 7.74,8.39 11.61,18.58 11.61,30.65 0,10.93 -3.04,19.35 -9.1,25.3 -6.04,5.92 -13.25,9.86 -21.63,11.84l0 0.42c3.87,0.95 7.13,2.8 9.71,5.62 2.54,2.79 4.85,6.55 6.91,11.22l25.94 61.68 -36.19 0 -20.48 -50.5c-2.17,-5.26 -4.85,-9.09 -8.08,-11.49 -3.27,-2.38 -7.4,-3.57 -12.41,-3.57l-12.28 0 0 65.56 -32.33 0 0 -159.32zm32.33 25.04l0 43.69 17.33 0c9.56,0 16.47,-2.34 20.68,-7.05 4.24,-4.7 6.36,-9.71 6.36,-15.06 0,-5.47 -1.89,-10.44 -5.68,-14.92 -3.8,-4.42 -10.93,-6.66 -21.36,-6.66l-17.33 0z"/>
  </g>
 </g>
</svg>
