<svg width="55" height="60" viewBox="0 0 55 60" fill="none" xmlns="http://www.w3.org/2000/svg">
<path d="M54.6776 23.1923C55.1786 29.8562 52.7778 35.9793 48.5691 40.4982C43.8773 45.5349 41.294 52.0803 41.294 58.8595C41.294 59.4922 40.7644 60.0045 40.1102 60.0045H19.7854C19.4714 60.0045 19.1703 59.8839 18.9483 59.6692C18.7263 59.4544 18.6016 59.1632 18.6016 58.8595V53.5944C18.6017 53.2246 18.5265 52.8585 18.3802 52.5168C18.234 52.1752 18.0196 51.8648 17.7493 51.6033C17.479 51.3418 17.1581 51.1343 16.8049 50.9928C16.4518 50.8513 16.0732 50.7785 15.6909 50.7785H10.4261C9.41667 50.7785 8.4486 50.3906 7.73483 49.7003C7.02107 49.0099 6.62008 48.0735 6.62008 47.0972V39.9679L3.77834 39.4204C3.52694 39.372 3.28907 39.2724 3.08051 39.1283C2.87195 38.9841 2.69748 38.7987 2.56868 38.5844C2.43989 38.37 2.35971 38.1316 2.33347 37.885C2.30723 37.6384 2.33553 37.3891 2.4165 37.1539L6.17336 26.2329C6.43629 25.4694 6.60732 24.6774 6.64497 23.8731C7.25761 10.6751 19.2468 0.336771 33.3489 1.79904C44.9482 3.00206 53.8314 11.9392 54.6776 23.1923Z" fill="#00329B"/>
<path d="M53.3113 21.8714C53.8123 28.5346 51.4121 34.6578 47.2028 39.1767C42.511 44.2134 39.9277 50.7587 39.9277 57.5386C39.9277 58.1707 39.3981 58.6836 38.7439 58.6836H18.4184C18.263 58.6836 18.1091 58.654 17.9654 58.5965C17.8218 58.5389 17.6913 58.4546 17.5814 58.3483C17.4715 58.2419 17.3843 58.1157 17.3248 57.9768C17.2653 57.8379 17.2347 57.689 17.2347 57.5386V52.2729C17.2348 51.9031 17.1597 51.5369 17.0135 51.1953C16.8674 50.8536 16.653 50.5431 16.3828 50.2816C16.1126 50.02 15.7917 49.8125 15.4386 49.6709C15.0854 49.5293 14.7069 49.4564 14.3246 49.4563H9.05914C8.04973 49.4563 7.08166 49.0685 6.36789 48.3781C5.65413 47.6877 5.25314 46.7514 5.25314 45.7751V38.6458L2.4114 38.0983C2.16 38.0499 1.92212 37.9503 1.71357 37.8062C1.50501 37.662 1.33054 37.4766 1.20174 37.2623C1.07294 37.0479 0.992763 36.8095 0.966525 36.5629C0.940286 36.3162 0.968589 36.067 1.04955 35.8318L4.80642 24.9108C5.06934 24.1472 5.24037 23.3553 5.27802 22.551C5.89066 9.35297 17.8798 -0.985358 31.982 0.476908C43.5819 1.68055 52.4651 10.6171 53.3113 21.8708V21.8714Z" fill="white"/>
<path d="M31.7191 3.2996C31.7024 3.29942 31.6858 3.29839 31.6693 3.29652C30.5703 3.18267 29.464 3.14904 28.3598 3.19591C28.116 3.21874 27.8875 3.01567 27.8767 2.76877C27.8712 2.65036 27.9144 2.53466 27.997 2.44706C28.0795 2.35945 28.1946 2.30711 28.317 2.30151C29.4685 2.25242 30.6222 2.2875 31.7682 2.40644C31.8852 2.41973 31.9925 2.4756 32.0684 2.5627C32.1443 2.64979 32.1831 2.76157 32.1768 2.87532C32.1705 2.98906 32.1197 3.09623 32.0347 3.17504C31.9497 3.25386 31.8368 3.29839 31.7191 3.2996ZM15.2806 8.16724C15.1859 8.16736 15.0934 8.13937 15.0157 8.08703C14.938 8.0347 14.8787 7.96054 14.8459 7.87459C14.8131 7.78864 14.8084 7.69503 14.8324 7.6064C14.8564 7.51777 14.9079 7.4384 14.9801 7.37901C17.6549 5.17501 20.8345 3.61974 24.2551 2.84222C24.372 2.82192 24.4924 2.84577 24.5916 2.90887C24.6908 2.97196 24.7612 3.06948 24.7882 3.1813C24.8152 3.29312 24.7968 3.4107 24.7368 3.50978C24.6768 3.60887 24.5798 3.68189 24.4657 3.71378C21.1891 4.45863 18.1436 5.94876 15.5818 8.06046C15.4978 8.1297 15.391 8.16758 15.2806 8.16724ZM8.3623 18.9722C8.29196 18.9723 8.22251 18.957 8.15924 18.9272C8.09597 18.8975 8.04053 18.8542 7.99716 18.8007C7.95378 18.7471 7.9236 18.6847 7.90891 18.6181C7.89422 18.5516 7.89542 18.4827 7.9124 18.4167C8.73513 15.2361 10.3046 12.2816 12.4989 9.78258C12.5383 9.7378 12.5864 9.70096 12.6405 9.67416C12.6946 9.64736 12.7536 9.63114 12.8142 9.62641C12.8748 9.62168 12.9358 9.62854 12.9936 9.6466C13.0515 9.66466 13.1051 9.69356 13.1514 9.73166C13.1977 9.76976 13.2358 9.8163 13.2635 9.86864C13.2912 9.92098 13.308 9.97808 13.3129 10.0367C13.3178 10.0953 13.3107 10.1543 13.292 10.2102C13.2733 10.2662 13.2434 10.318 13.204 10.3628C11.1023 12.7564 9.59928 15.5862 8.81157 18.6327C8.78665 18.7296 8.72896 18.8156 8.64767 18.8772C8.56638 18.9387 8.46551 18.9721 8.3623 18.9722ZM7.14915 26.1132C7.07579 26.1133 7.00346 26.0965 6.93812 26.0643C6.87279 26.032 6.81631 25.9852 6.77336 25.9277C6.73041 25.8702 6.70222 25.8036 6.69111 25.7335C6.68 25.6633 6.68629 25.5916 6.70946 25.5243C7.04641 24.5447 7.23913 23.5738 7.28189 22.6374C7.28418 22.5786 7.29852 22.5208 7.32408 22.4674C7.34965 22.414 7.38592 22.3661 7.43081 22.3263C7.47569 22.2866 7.52829 22.2559 7.58554 22.236C7.6428 22.216 7.70357 22.2073 7.76434 22.2103C8.01961 22.2214 8.21744 22.43 8.20595 22.6776C8.16 23.696 7.95196 24.7484 7.58821 25.807C7.55752 25.8962 7.4986 25.9737 7.4198 26.0287C7.34099 26.0836 7.2463 26.1132 7.14915 26.1132ZM4.75476 33.0721C4.68141 33.0722 4.60908 33.0554 4.54374 33.0232C4.4784 32.9909 4.42192 32.9441 4.37897 32.8866C4.33602 32.829 4.30783 32.7625 4.29672 32.6923C4.28561 32.6222 4.2919 32.5505 4.31507 32.4832L5.77838 28.2303C5.81714 28.1176 5.9006 28.0244 6.0104 27.9712C6.12021 27.9181 6.24736 27.9092 6.36389 27.9467C6.48042 27.9842 6.57678 28.0649 6.63177 28.1711C6.68676 28.2773 6.69589 28.4003 6.65713 28.513L5.19446 32.7659C5.16374 32.8552 5.10472 32.9328 5.02579 32.9877C4.94685 33.0427 4.85202 33.0722 4.75476 33.0721Z" fill="#ECECEC"/>
<path d="M47.2035 39.176C42.5154 44.2169 39.9232 50.7584 39.9271 57.5386C39.9271 57.8547 39.7969 58.1417 39.5812 58.3503C39.3572 58.5633 39.0561 58.6833 38.7421 58.6849H18.4178C18.1036 58.6847 17.8024 58.5639 17.5803 58.3489C17.3582 58.134 17.2334 57.8425 17.2334 57.5386V56.4103H36.3968C36.7235 56.4103 37.0139 56.285 37.2296 56.0757C37.4498 55.8591 37.5739 55.5679 37.5755 55.2641C37.5717 48.484 40.1638 41.9427 44.8518 36.9021C49.0612 32.3826 51.4619 26.2638 50.9622 19.5962C50.5666 14.3848 48.4498 9.66284 45.123 5.97971C49.7836 9.87764 52.8321 15.507 53.3132 21.8708C53.8136 28.5328 51.4128 34.6572 47.2035 39.176Z" fill="#E8E8E8"/>
<path d="M45.1179 20.5616C45.133 20.9715 45.0625 21.3802 44.9107 21.7632C44.7589 22.1461 44.5288 22.4956 44.2343 22.7907C43.9397 23.0858 43.5867 23.3204 43.1964 23.4807C42.806 23.6409 42.3862 23.7233 41.9622 23.7232C41.3829 23.7222 40.8149 23.5677 40.3199 23.2767C39.8249 22.9856 39.4218 22.569 39.1542 22.072C39.1251 22.0149 39.0802 21.9667 39.0246 21.9326C38.969 21.8986 38.9048 21.8799 38.839 21.8788C38.7446 21.879 38.6541 21.9153 38.5874 21.9799C38.5206 22.0444 38.4831 22.132 38.4829 22.2233V26.7551C38.4827 27.2647 38.2734 27.7533 37.9008 28.1136C37.5283 28.4739 37.0231 28.6764 36.4963 28.6766H31.8083C31.7141 28.6768 31.6237 28.713 31.5569 28.7774C31.4902 28.8419 31.4526 28.9292 31.4522 29.0204V29.0241C31.4522 29.1537 31.5327 29.2698 31.652 29.3297C32.2878 29.6491 32.7927 30.1679 33.0838 30.8011C33.375 31.4343 33.4352 32.1444 33.2545 32.815C33.0739 33.4856 32.6631 34.077 32.0896 34.4924C31.516 34.9077 30.8136 35.1222 30.0974 35.1009C28.4197 35.0485 27.04 33.6714 27.04 32.0486C27.0396 31.4869 27.1989 30.9358 27.5006 30.4557C27.8022 29.9756 28.2345 29.585 28.7503 29.3266C28.8095 29.2983 28.8594 29.2547 28.8947 29.2007C28.9299 29.1467 28.9491 29.0843 28.95 29.0204C28.9497 28.9293 28.9121 28.8421 28.8455 28.7777C28.7789 28.7133 28.6887 28.6769 28.5945 28.6766H23.906C23.3791 28.6764 22.8739 28.4739 22.5014 28.1136C22.1289 27.7533 21.9195 27.2647 21.9194 26.7551V22.2233C21.9192 22.132 21.8816 22.0444 21.8149 21.9799C21.7481 21.9153 21.6577 21.879 21.5633 21.8788C21.4962 21.8794 21.4306 21.8982 21.3741 21.9332C21.3175 21.9681 21.2723 22.0177 21.2435 22.0763C20.9765 22.5725 20.574 22.9883 20.0797 23.2786C19.5855 23.569 19.0184 23.7227 18.4401 23.7232C18.016 23.7234 17.5961 23.641 17.2057 23.4808C16.8152 23.3207 16.4622 23.086 16.1675 22.7909C15.8729 22.4958 15.6428 22.1463 15.491 21.7633C15.3391 21.3803 15.2686 20.9716 15.2837 20.5616C15.3386 18.9426 16.7579 17.6149 18.4324 17.6112C19.0119 17.6089 19.5808 17.7616 20.0763 18.0523C20.5718 18.343 20.9746 18.7605 21.2404 19.2586C21.3054 19.3783 21.4254 19.4555 21.5633 19.4555C21.7592 19.4555 21.9194 19.3012 21.9194 19.1111V14.5798C21.9185 14.0875 22.1138 13.6137 22.4648 13.2571C22.8158 12.9005 23.2954 12.6885 23.8039 12.6651C23.8364 12.6688 23.8728 12.6688 23.906 12.6688H28.5945C28.6748 12.6684 28.7528 12.6943 28.8158 12.7424C28.8788 12.7906 28.923 12.858 28.9411 12.9336C28.9592 13.0092 28.9502 13.0886 28.9155 13.1586C28.8808 13.2286 28.8226 13.2851 28.7503 13.3188C28.2347 13.5764 27.8024 13.9664 27.5007 14.4459C27.1991 14.9253 27.0397 15.4759 27.04 16.0372C27.04 17.6636 28.4197 19.0407 30.0981 19.0901C30.5215 19.1035 30.9434 19.0344 31.3387 18.8868C31.7339 18.7392 32.0944 18.5162 32.3987 18.231C32.7029 17.9459 32.9448 17.6044 33.1098 17.227C33.2748 16.8496 33.3596 16.4439 33.3591 16.0341C33.3601 15.4738 33.2013 14.9242 32.9001 14.4457C32.5989 13.9671 32.167 13.5783 31.652 13.3219C31.5925 13.2933 31.5423 13.2493 31.5071 13.1948C31.4718 13.1404 31.4528 13.0775 31.4522 13.0133V13.0096C31.4522 12.8194 31.6118 12.6688 31.8083 12.6688H36.4969C36.5295 12.6688 36.5658 12.6688 36.599 12.6651C37.1075 12.6885 37.5871 12.9005 37.9381 13.2571C38.2891 13.6137 38.4844 14.0875 38.4835 14.5798V19.1111C38.4835 19.3006 38.6431 19.4555 38.8396 19.4555C38.9736 19.4555 39.0936 19.3783 39.1555 19.2623C39.4223 18.764 39.8257 18.3464 40.3215 18.0552C40.8173 17.7639 41.3865 17.6103 41.9666 17.6112C43.6443 17.6149 45.0643 18.9426 45.1191 20.5616H45.1179Z" fill="#00329B"/>
</svg>
